<svg xmlns="http://www.w3.org/2000/svg" viewBox="0 0 160 160">
<polygon points="18,72 52,20 108,20 142,72 80,148" fill="#02081e"/>
<polygon points="18,72 52,20 80,55" fill="#1d5ecf"/>
<polygon points="52,20 108,20 80,55" fill="#3288f8"/>
<polygon points="108,20 142,72 80,55" fill="#0a2870"/>
<polygon points="18,72 142,72 80,55" fill="#0d3288"/>
<polygon points="56,20 104,20 96,38 64,38" fill="#48a8ff"/>
<polygon points="56,20 76,20 72,34 60,36" fill="white" opacity="0.42"/>
<line x1="52" y1="20" x2="80" y2="55" stroke="#01040c" stroke-width="1" opacity="0.65"/>
<line x1="108" y1="20" x2="80" y2="55" stroke="#01040c" stroke-width="1" opacity="0.65"/>
<line x1="18" y1="72" x2="80" y2="55" stroke="#01040c" stroke-width="0.8" opacity="0.45"/>
<line x1="142" y1="72" x2="80" y2="55" stroke="#01040c" stroke-width="0.8" opacity="0.45"/>
<line x1="18" y1="72" x2="142" y2="72" stroke="#01040c" stroke-width="2.5"/>
<polygon points="18,72 80,72 80,148" fill="#0b2870"/>
<polygon points="142,72 80,72 80,148" fill="#050e28"/>
<polygon points="18,72 50,72 80,148" fill="#0e3080"/>
<polygon points="110,72 142,72 80,148" fill="#040a1c"/>
<line x1="80" y1="72" x2="80" y2="148" stroke="#01040c" stroke-width="1" opacity="0.6"/>
<line x1="50" y1="72" x2="80" y2="148" stroke="#01040c" stroke-width="0.7" opacity="0.4"/>
<line x1="110" y1="72" x2="80" y2="148" stroke="#01040c" stroke-width="0.7" opacity="0.4"/>
<polygon points="18,72 52,20 108,20 142,72 80,148" fill="none" stroke="#01040c" stroke-width="2"/>
<circle cx="62" cy="29" r="5" fill="white" opacity="0.96"/>
<line x1="62" y1="21" x2="62" y2="37" stroke="white" stroke-width="2.8" opacity="0.88"/>
<line x1="54" y1="29" x2="70" y2="29" stroke="white" stroke-width="2.8" opacity="0.88"/>
<circle cx="94" cy="24" r="2.8" fill="white" opacity="0.58"/>
<circle cx="80" cy="14" r="1.8" fill="#a0d0ff" opacity="0.42"/>
</svg>
