<svg viewBox="-8 -10 176 176" xmlns="http://www.w3.org/2000/svg">
<path d="M 36,26 C 32,34 30,44 32,54 C 34,68 44,82 56,96 C 68,110 78,124 84,140 C 86,146 88,152 88,156 C 90,148 94,136 98,122 C 100,110 100,98 94,82 C 88,66 82,58 86,44 C 90,34 96,26 102,20 C 94,22 86,24 78,26 C 64,28 48,30 36,26 Z" fill="#4a2808" stroke="#2e1404" stroke-width="2.5"/>
<path d="M 38,28 C 34,38 34,52 38,66 C 44,82 56,96 66,110 C 74,122 82,136 84,150 C 86,140 90,126 92,114 C 94,102 94,90 88,74 C 82,60 76,50 80,38 C 84,30 90,24 96,20 C 88,22 80,24 74,26 C 62,28 48,32 38,28 Z" fill="#6a3810" stroke="#4a2208" stroke-width="2"/>
<path d="M 88,156 C 90,144 96,124 102,114 C 112,90 124,78 132,60 C 138,44 134,30 128,22 C 124,28 118,38 114,52 C 108,68 108,84 106,96 C 104,108 100,120 96,134 C 94,142 90,150 88,156 Z" fill="#3a1806" stroke="#2e1404" stroke-width="2.5"/>
<path d="M 36,92 C 26,88 16,82 10,74" stroke="#d02020" stroke-width="3.5" stroke-linecap="round" fill="none"/>
<path d="M 36,92 C 24,94 14,92 8,88" stroke="#e03030" stroke-width="2.5" stroke-linecap="round" fill="none"/>
<path d="M 42,112 C 28,112 16,108 10,102" stroke="#c02020" stroke-width="3" stroke-linecap="round" fill="none"/>
<path d="M 50,128 C 36,130 22,126 16,120" stroke="#a01818" stroke-width="2.5" stroke-linecap="round" fill="none"/>
<circle cx="9" cy="74" r="5" fill="#ff4030" opacity="0.95"/>
<circle cx="7" cy="88" r="4.5" fill="#ff3020" opacity="0.85"/>
<circle cx="10" cy="102" r="4" fill="#ff4030" opacity="0.75"/>
<circle cx="16" cy="120" r="3.5" fill="#e03020" opacity="0.65"/>
<path d="M 66,20 C 62,14 58,10 60,6 C 62,2 70,3 74,8" fill="none" stroke="#e0a020" stroke-width="2.5" stroke-linecap="round"/>
<circle cx="59" cy="6" r="4" fill="#ffc030" opacity="0.95"/>
</svg>