<svg viewBox="-8 -10 176 176" xmlns="http://www.w3.org/2000/svg">
<circle cx="80" cy="80" r="56" fill="none" stroke="#c89020" stroke-width="20"/>
<circle cx="80" cy="80" r="56" fill="none" stroke="#e0a830" stroke-width="14" opacity="0.65"/>
<circle cx="80" cy="80" r="56" fill="none" stroke="#f0c040" stroke-width="7" opacity="0.35"/>
<circle cx="80" cy="80" r="44" fill="#0a1830" opacity="0.85"/>
<circle cx="80" cy="80" r="34" fill="#102040" opacity="0.75"/>
<circle cx="80" cy="80" r="22" fill="#4080c0" opacity="0.55"/>
<circle cx="80" cy="80" r="11" fill="#80b8f0" opacity="0.85"/>
<circle cx="80" cy="80" r="5" fill="#c8e8ff"/>
<circle cx="80" cy="80" r="56" fill="none" stroke="#c89020" stroke-width="22" stroke-dasharray="3 32" stroke-dashoffset="0" opacity="0.45"/>
<rect x="71" y="26" width="18" height="7" rx="2" fill="#e0a820" opacity="0.95"/>
<rect x="71" y="129" width="18" height="7" rx="2" fill="#e0a820" opacity="0.95"/>
<rect x="26" y="71" width="7" height="18" rx="2" fill="#e0a820" opacity="0.95"/>
<rect x="129" y="71" width="7" height="18" rx="2" fill="#e0a820" opacity="0.95"/>
<rect x="38" y="40" width="7" height="5" rx="1" fill="#c89020" opacity="0.8" transform="rotate(45 41 42)"/>
<rect x="115" y="40" width="7" height="5" rx="1" fill="#c89020" opacity="0.8" transform="rotate(-45 119 42)"/>
<rect x="38" y="115" width="7" height="5" rx="1" fill="#c89020" opacity="0.8" transform="rotate(-45 41 118)"/>
<rect x="115" y="115" width="7" height="5" rx="1" fill="#c89020" opacity="0.8" transform="rotate(45 119 118)"/>
</svg>