<svg viewBox="-8 -10 176 176" xmlns="http://www.w3.org/2000/svg">
<rect x="42" y="24" width="76" height="114" rx="5" fill="#e8d8a0" stroke="#b09860" stroke-width="2.5"/>
<rect x="46" y="28" width="68" height="106" rx="3" fill="#f0e4b8" opacity="0.7"/>
<line x1="54" y1="46" x2="106" y2="46" stroke="#c8a840" stroke-width="1.5" opacity="0.5"/>
<line x1="54" y1="55" x2="106" y2="55" stroke="#c8a840" stroke-width="1" opacity="0.35"/>
<line x1="54" y1="64" x2="106" y2="64" stroke="#c8a840" stroke-width="1" opacity="0.35"/>
<line x1="54" y1="73" x2="106" y2="73" stroke="#c8a840" stroke-width="1" opacity="0.35"/>
<line x1="54" y1="102" x2="106" y2="102" stroke="#c8a840" stroke-width="1" opacity="0.35"/>
<line x1="54" y1="111" x2="106" y2="111" stroke="#c8a840" stroke-width="1" opacity="0.35"/>
<line x1="54" y1="120" x2="106" y2="120" stroke="#c8a840" stroke-width="1" opacity="0.35"/>
<circle cx="80" cy="86" r="24" fill="#c01818" stroke="#800808" stroke-width="3"/>
<circle cx="80" cy="86" r="19" fill="#d02020" stroke="#901010" stroke-width="1.5"/>
<circle cx="80" cy="86" r="14" fill="#b81418" stroke="#880010" stroke-width="1"/>
<circle cx="80" cy="86" r="6" fill="#e8c030" stroke="#a88020" stroke-width="2"/>
<circle cx="80" cy="86" r="2.5" fill="#fff8c0"/>
<line x1="66" y1="86" x2="94" y2="86" stroke="#e8c030" stroke-width="1.2" opacity="0.7"/>
<line x1="80" y1="72" x2="80" y2="100" stroke="#e8c030" stroke-width="1.2" opacity="0.7"/>
<circle cx="80" cy="86" r="24" fill="none" stroke="#f0d060" stroke-width="1" opacity="0.5"/>
<path d="M54,24 C50,40 50,118 54,138" fill="none" stroke="#c8a840" stroke-width="3.5" stroke-linecap="round" opacity="0.35"/>
<path d="M106,24 C110,40 110,118 106,138" fill="none" stroke="#c8a840" stroke-width="3.5" stroke-linecap="round" opacity="0.35"/>
</svg>