<svg viewBox="-8 -10 176 176" xmlns="http://www.w3.org/2000/svg">
<g transform="rotate(45 80 80)">
<rect x="78" y="14" width="4" height="116" rx="2" fill="#c8c8d8" stroke="#888898" stroke-width="1"/>
<rect x="60" y="68" width="40" height="8" rx="2" fill="#a8a8b8" stroke="#787888" stroke-width="1"/>
<rect x="76" y="128" width="8" height="12" rx="3" fill="#888898"/>
<ellipse cx="80" cy="17" rx="6" ry="5" fill="#d8d8e8"/>
</g>
<g transform="rotate(-45 80 80)">
<rect x="78" y="14" width="4" height="116" rx="2" fill="#c8c8d8" stroke="#888898" stroke-width="1"/>
<rect x="60" y="68" width="40" height="8" rx="2" fill="#a8a8b8" stroke="#787888" stroke-width="1"/>
<rect x="76" y="128" width="8" height="12" rx="3" fill="#888898"/>
<ellipse cx="80" cy="17" rx="6" ry="5" fill="#d8d8e8"/>
</g>
<path d="M58,60 L80,55 L102,60 L106,102 L80,111 L54,102 Z" fill="#c01020" stroke="#800010" stroke-width="2"/>
<path d="M60,63 L80,58 L100,63 L80,61 Z" fill="#e04050" opacity="0.5"/>
<rect x="71" y="70" width="18" height="2.5" rx="1" fill="#e8c030" opacity="0.9"/>
<rect x="69" y="77" width="22" height="2.5" rx="1" fill="#e8c030" opacity="0.7"/>
<rect x="71" y="84" width="18" height="2.5" rx="1" fill="#e8c030" opacity="0.5"/>
<path d="M54,66 L38,57" stroke="#f08030" stroke-width="2.5" stroke-linecap="round" opacity="0.9"/>
<path d="M106,66 L122,57" stroke="#f08030" stroke-width="2.5" stroke-linecap="round" opacity="0.9"/>
<path d="M56,82 L36,80" stroke="#f08030" stroke-width="2" stroke-linecap="round" opacity="0.7"/>
<path d="M104,82 L124,80" stroke="#f08030" stroke-width="2" stroke-linecap="round" opacity="0.7"/>
<circle cx="37" cy="57" r="4" fill="#ff9040" opacity="0.95"/>
<circle cx="123" cy="57" r="4" fill="#ff9040" opacity="0.95"/>
<circle cx="35" cy="80" r="3" fill="#ff7020" opacity="0.75"/>
<circle cx="125" cy="80" r="3" fill="#ff7020" opacity="0.75"/>
</svg>