<svg viewBox="-8 -10 176 176" xmlns="http://www.w3.org/2000/svg">
<rect x="44" y="24" width="72" height="114" rx="7" fill="#5a5868" stroke="#3a3848" stroke-width="2.5"/>
<rect x="50" y="30" width="60" height="102" rx="5" fill="#6a6878" opacity="0.65"/>
<rect x="52" y="32" width="56" height="98" rx="4" fill="#3a3848" opacity="0.45"/>
<line x1="52" y1="58" x2="108" y2="58" stroke="#484858" stroke-width="2.5" opacity="0.9"/>
<line x1="52" y1="108" x2="108" y2="108" stroke="#484858" stroke-width="2.5" opacity="0.9"/>
<polygon points="80,40 89,67 116,68 95,85 102,112 80,97 58,112 65,85 44,68 71,67" fill="#a030e0" stroke="#8020c0" stroke-width="2"/>
<polygon points="80,40 89,67 116,68 95,85 102,112 80,97 58,112 65,85 44,68 71,67" fill="none" stroke="#d070ff" stroke-width="1.2" opacity="0.9"/>
<polygon points="80,48 87,68 108,69 91,82 97,104 80,93 63,104 69,82 52,69 73,68" fill="#b840f0" opacity="0.55"/>
<circle cx="80" cy="78" r="9" fill="#e080ff" opacity="0.75"/>
<circle cx="80" cy="78" r="4" fill="#ffffff" opacity="0.85"/>
<circle cx="44" cy="30" r="5" fill="#d4a030" stroke="#a07820" stroke-width="1.5"/>
<circle cx="116" cy="30" r="5" fill="#d4a030" stroke="#a07820" stroke-width="1.5"/>
<circle cx="44" cy="134" r="5" fill="#d4a030" stroke="#a07820" stroke-width="1.5"/>
<circle cx="116" cy="134" r="5" fill="#d4a030" stroke="#a07820" stroke-width="1.5"/>
</svg>